<?xml version="1.0" encoding="UTF-8"?>
<svg version="1.1" xmlns="http://www.w3.org/2000/svg" width="1485" height="1389">
<path d="M0 0 C5.30021499 7.95032249 1.46575992 21.43102191 0.3125 30.5625 C0.22319214 31.28098114 0.13388428 31.99946228 0.04187012 32.73971558 C-8.77420586 103.18388939 -32.54608983 170.37379158 -73 229 C-65.46355417 237.16875535 -54.08606601 238.60076393 -43.42871094 239.12695312 C-40.51519901 239.23827175 -37.60147977 239.33922275 -34.6875 239.4375 C-2.09379008 240.59356679 20.89526248 254.84426148 44.94140625 275.40625 C48.41846202 278.3707949 51.98295176 281.21904827 55.5625 284.05859375 C59.03743206 286.82628803 62.46715285 289.64808384 65.90234375 292.46484375 C69.48906091 295.40348632 73.08813563 298.32687196 76.6875 301.25 C77.36635254 301.80131592 78.04520508 302.35263184 78.74462891 302.9206543 C80.13619181 304.0506661 81.52779366 305.18062995 82.91943359 306.31054688 C86.94303375 309.57777442 90.96529698 312.84664761 94.98779297 316.11523438 C98.38332977 318.87426403 101.779224 321.63285165 105.17578125 324.390625 C112.79629266 330.57865564 120.40704672 336.77815665 128 343 C129.83321648 344.50014281 131.66655146 346.00014082 133.5 347.5 C134.41007812 348.24507812 135.32015625 348.99015625 136.2578125 349.7578125 C138.06324411 351.2340486 139.87049141 352.70806736 141.6796875 354.1796875 C147.22688668 358.69784103 152.71193861 363.28120407 158.16357422 367.91357422 C161.58020732 370.81219839 165.02486997 373.67140579 168.5 376.5 C178.89369651 384.9683808 189.04150935 393.73235408 199.21191406 402.46630859 C201.03259768 404.02795995 202.85578814 405.58663733 204.6796875 407.14453125 C207.61006393 409.64795246 210.53540598 412.15711183 213.45605469 414.671875 C214.84587369 415.86741823 216.23913151 417.05896105 217.6328125 418.25 C222.54321866 422.51123382 226.89753836 426.9573909 231 432 C231.78375 432.94617187 232.5675 433.89234375 233.375 434.8671875 C249.0792119 454.23309713 256.73750812 475.96295601 255 501 C251.9681166 525.72448452 234.94477418 547.87602061 216 563 C197.27226655 576.69401157 176.5425227 584.35068061 153.16796875 581.5390625 C130.90778461 578.06761899 111.18920127 567.2628635 94 553 C92.63831067 551.88115758 91.27631406 550.76268906 89.9140625 549.64453125 C87.72872554 547.84760524 85.54544766 546.04836968 83.36694336 544.24316406 C78.96149007 540.59461225 74.51457214 537.012422 70 533.5 C63.92193003 528.76879012 57.97277289 523.8911917 52.03735352 518.98266602 C47.60790114 515.32030577 43.15166657 511.69747855 38.65234375 508.12109375 C35.08471342 505.26804033 31.54304387 502.38349326 28 499.5 C22.90556697 495.35478913 17.79798357 491.22811046 12.66015625 487.13671875 C10.5754574 485.46222496 8.50168407 483.77685912 6.43359375 482.08203125 C-1.15726425 475.86720528 -8.82917759 469.79562865 -16.64941406 463.87182617 C-21.45387925 460.21922878 -26.15292926 456.46012668 -30.8125 452.625 C-42.79410134 442.79635432 -55.24494275 433.57489042 -67.9375 424.6875 C-95.09011628 405.65993182 -112.83240631 388.20727309 -120.37109375 354.96875 C-125.46653577 332.29035052 -125.46653577 332.29035052 -138 313 C-138.46019531 312.40574219 -138.92039062 311.81148437 -139.39453125 311.19921875 C-140.98375345 309.75721272 -140.98375345 309.75721272 -143.37890625 310.0390625 C-146.67893784 311.24891015 -148.42409974 312.91969066 -150.9375 315.375 C-156.75022826 320.85222851 -162.88014916 325.75318674 -169.20947266 330.61669922 C-171.01849775 332.01429074 -172.81315289 333.42871922 -174.60546875 334.84765625 C-175.75766425 335.75279291 -176.91000245 336.65774797 -178.0625 337.5625 C-179.08472656 338.36816406 -180.10695313 339.17382812 -181.16015625 340.00390625 C-186.90209505 344.03984948 -192.10353861 345.15406372 -199 344 C-209.58570025 340.07014527 -219.31020173 333.35783786 -228.9609375 327.58984375 C-235.2289352 323.84979465 -241.54731365 320.2004013 -247.875 316.5625 C-256.26557438 311.73463926 -264.64268629 306.8852197 -273 302 C-284.54715454 295.25274962 -296.12902212 288.56660576 -307.71777344 281.89111328 C-313.14659942 278.76319852 -318.57319281 275.63141552 -324 272.5 C-326.16665583 271.24998121 -328.3333225 269.99998122 -330.5 268.75 C-334.83333333 266.25 -339.16666667 263.75 -343.5 261.25 C-344.57411133 260.63044434 -345.64822266 260.01088867 -346.75488281 259.37255859 C-348.90570781 258.13144907 -351.05610382 256.8895958 -353.20605469 255.64697266 C-358.25870706 252.72784993 -363.31523286 249.81622107 -368.38757324 246.93145752 C-370.18522259 245.90862368 -371.98148206 244.88339067 -373.77734375 243.85742188 C-376.03242448 242.57007264 -378.29009865 241.28725195 -380.55078125 240.00976562 C-394.28172188 232.15483435 -394.28172188 232.15483435 -395.8125 227.5625 C-393.46677404 220.16444122 -383.18549111 216.0191569 -376.87957764 212.51095581 C-374.37877074 211.11959794 -371.887708 209.71117755 -369.39581299 208.30393982 C-368.11729459 207.58216829 -366.8382807 206.86127377 -365.55877686 206.14125061 C-359.62791584 202.80170191 -353.74654809 199.38018979 -347.875 195.9375 C-336.37202661 189.20664023 -324.8307561 182.54343673 -313.28222656 175.89111328 C-307.85340058 172.76319852 -302.42680719 169.63141552 -297 166.5 C-294.83334417 165.24998121 -292.6666775 163.99998122 -290.5 162.75 C-288.89125 161.821875 -288.89125 161.821875 -287.25 160.875 C-277.5 155.25 -277.5 155.25 -274.24951172 153.37475586 C-272.08442929 152.12564482 -269.91939018 150.87645871 -267.75439453 149.62719727 C-262.31384294 146.48797691 -256.87252784 143.35009437 -251.4296875 140.21484375 C-240.93767906 134.16944841 -230.45518324 128.10889781 -220 122 C-208.45270484 115.25298806 -196.87097973 108.56660682 -185.28222656 101.89111328 C-179.85340058 98.76319852 -174.42680719 95.63141552 -169 92.5 C-166.83334417 91.24998121 -164.6666775 89.99998122 -162.5 88.75 C-161.4275 88.13125 -160.355 87.5125 -159.25 86.875 C-71.5 36.25 -71.5 36.25 -68.24731445 34.37353516 C-66.08950197 33.12858718 -63.93178647 31.8834711 -61.77416992 30.63818359 C-56.22283408 27.43447349 -50.66963459 24.2340637 -45.11328125 21.0390625 C-34.60629645 14.99369163 -24.11120508 8.94243929 -13.7578125 2.63671875 C-8.51619472 -0.47409973 -6.1960569 -1.49164333 0 0 Z " fill="#201E1E" transform="translate(1050,631)"/>
<path d="M0 0 C5.77740017 0.08486722 9.34253027 3.36136266 13.69921875 6.8359375 C14.53001953 7.47426514 15.36082031 8.11259277 16.21679688 8.77026367 C17.88698483 10.05632777 19.55102667 11.35041743 21.20849609 12.65283203 C23.20802275 14.22252616 25.22146454 15.76891609 27.25 17.30078125 C41.21592783 27.86297331 55.41635576 38.90221604 67.58935547 51.54125977 C69.41185033 53.3612086 71.29355403 55.0270652 73.2578125 56.69140625 C77.50435301 60.38245705 81.36983 64.34337685 85.19921875 68.4609375 C85.89055908 69.20150391 86.58189941 69.94207031 87.29418945 70.70507812 C98.78201473 83.0763791 109.4911427 95.87066692 119.51171875 109.4609375 C120.01558105 110.14381836 120.51944336 110.82669922 121.03857422 111.53027344 C164.72946506 171.15916904 200.82791733 253.91492311 201.76171875 329.0859375 C201.7875 330.33632813 201.81328125 331.58671875 201.83984375 332.875 C201.34396554 338.29424041 199.54935924 341.72998601 195.6015625 345.3984375 C190.54104018 349.47331561 184.7764947 352.39449343 179.07421875 355.4609375 C176.6367994 356.78967721 174.2030947 358.1251517 171.76953125 359.4609375 C171.1566777 359.79649658 170.54382416 360.13205566 169.91239929 360.4777832 C164.03234016 363.70506866 158.23255741 367.0635589 152.44921875 370.4609375 C151.475896 371.03207275 150.50257324 371.60320801 149.49975586 372.19165039 C147.51617922 373.35562928 145.53269983 374.51977393 143.54931641 375.68408203 C138.25861304 378.77890112 132.94762852 381.83846469 127.63671875 384.8984375 C126.55640381 385.52105469 125.47608887 386.14367187 124.36303711 386.78515625 C122.17343527 388.04687786 119.98373779 389.30843351 117.79394531 390.56982422 C113.44754735 393.0740788 109.10261602 395.58087102 104.7578125 398.08789062 C101.50668396 399.96384265 98.25529501 401.83934279 95.00390625 403.71484375 C90.69570224 406.20024652 86.38849086 408.68735727 82.08203125 411.17578125 C73.22929285 416.28963749 64.376222 421.40256658 55.49609375 426.46875 C54.90970627 426.80330704 54.32331879 427.13786407 53.71916199 427.4825592 C51.35514975 428.83102778 48.99100233 430.17925636 46.62612915 431.5262146 C40.30427418 435.12748591 33.99708112 438.75120559 27.7265625 442.44140625 C26.64713379 443.07618896 25.56770508 443.71097168 24.45556641 444.36499023 C22.43834291 445.55415497 20.42349795 446.74736845 18.41162109 447.94555664 C3.97066116 456.4609375 3.97066116 456.4609375 -1.92578125 456.4609375 C-4.48828125 455.4609375 -4.48828125 455.4609375 -5.63155669 453.86268467 C-6.79984063 450.58750992 -6.77202919 447.466101 -6.75837421 444.03298283 C-6.76326907 443.27853914 -6.76816392 442.52409546 -6.7732071 441.74678984 C-6.78724678 439.20435363 -6.78703483 436.66211634 -6.78694153 434.11964417 C-6.79408912 432.28421578 -6.80210197 430.44879058 -6.8109085 428.61336941 C-6.8325921 423.5583585 -6.8417745 418.50338935 -6.84893262 413.44833982 C-6.85877591 408.00106868 -6.88002353 402.55384045 -6.89978027 397.1065979 C-6.93657957 386.43065991 -6.96242166 375.75472212 -6.98417041 365.07874388 C-7.00195861 356.40419533 -7.02324423 347.72966222 -7.04703331 339.0551281 C-7.05040386 337.82207792 -7.05377441 336.58902774 -7.0572471 335.31861241 C-7.06409598 332.81394219 -7.07094711 330.30927198 -7.07780048 327.80460178 C-7.13431425 306.97855297 -7.18164179 286.15249393 -7.22318796 265.32641042 C-7.22450981 264.66383761 -7.22583166 264.00126481 -7.22719357 263.31861404 C-7.22986602 261.97873055 -7.23253658 260.63884707 -7.23520525 259.29896357 C-7.27683194 238.44690439 -7.33176279 217.59491751 -7.3972168 196.74291992 C-7.47070197 173.32475663 -7.53414782 149.906593 -7.58285445 126.48836368 C-7.60885034 114.08538254 -7.63931015 101.68245033 -7.68140602 89.27951241 C-7.71711967 78.72129177 -7.74237778 68.16311027 -7.75398157 57.6048345 C-7.76019586 52.21489515 -7.77131226 46.8250817 -7.79543877 41.4351902 C-7.81738107 36.50489994 -7.82552452 31.57479025 -7.82248469 26.64445388 C-7.82383707 24.85713598 -7.83031717 23.0698134 -7.84233353 21.28253538 C-7.85787461 18.85970747 -7.854998 16.43758287 -7.84739399 14.01473331 C-7.85630768 13.31507805 -7.86522137 12.61542279 -7.87440518 11.89456585 C-7.82000368 5.83767353 -6.35263766 0.83943028 0 0 Z " fill="#2C575E" transform="translate(849.48828125,246.5390625)"/>
<path d="M0 0 C2.53527984 9.21129753 2.28287337 18.492921 2.26069641 27.95565796 C2.26371957 29.78460109 2.26760987 31.61354295 2.27228898 33.44248259 C2.2825557 38.45168417 2.28039058 43.46081407 2.27610838 48.47002149 C2.27363891 53.87829688 2.28265782 59.28655513 2.29014587 64.69482422 C2.30288651 75.28139117 2.30468754 85.86793275 2.30234561 96.45450608 C2.3005624 105.05549538 2.30231214 113.65647698 2.30657005 122.25746536 C2.30716524 123.48166524 2.30776043 124.70586512 2.30837366 125.96716196 C2.30958539 128.4540377 2.31079953 130.94091343 2.31201603 133.42778917 C2.3228881 156.73944292 2.32073003 180.05108221 2.31463119 203.36273678 C2.30945636 224.70542377 2.32073297 246.04805629 2.33972941 267.39073424 C2.35908078 289.29975488 2.36736894 311.20875394 2.36360615 333.11778319 C2.36169076 345.42058222 2.36421494 357.72334242 2.37832069 370.02613449 C2.3902007 380.49350171 2.39167714 390.96080616 2.37953053 401.42817418 C2.37361941 406.77143313 2.37260395 412.11457706 2.38453293 417.45782852 C2.39531532 422.344063 2.39238038 427.23008536 2.37827124 432.1163096 C2.37560321 433.88861375 2.37805616 435.66093413 2.38600711 437.43322246 C2.39603176 439.83336299 2.38776185 442.23275441 2.37473011 444.632864 C2.38569413 445.67649523 2.38569413 445.67649523 2.39687964 446.74120992 C2.35128347 450.76383207 1.90529099 453.13586216 -1 456 C-3.3125 456.9375 -3.3125 456.9375 -6 457 C-11.07475706 454.83771221 -15.2206414 451.77036116 -19.5625 448.4375 C-20.26141357 447.90664795 -20.96032715 447.3757959 -21.68041992 446.82885742 C-23.79054598 445.22389511 -25.89539325 443.61218919 -28 442 C-29.18201052 441.10119264 -30.36428361 440.20273045 -31.546875 439.3046875 C-41.14494959 431.99510167 -50.51110035 424.47846868 -59.41796875 416.3359375 C-60.79379545 415.09124103 -62.17504259 413.85169069 -63.59057617 412.65234375 C-70.07024794 407.13348353 -76.05789648 401.12819769 -82.07202148 395.11328125 C-83.92477468 393.26271033 -85.78538706 391.42029924 -87.64648438 389.578125 C-94.56709304 382.68980489 -100.9428606 375.6674894 -107 368 C-107.93432662 366.89778775 -108.87570494 365.80145964 -109.828125 364.71484375 C-117.5041491 355.9121774 -124.31875779 346.57293034 -131 337 C-131.4419873 336.36868164 -131.88397461 335.73736328 -132.33935547 335.08691406 C-169.06941529 282.27938565 -216.84662707 188.52269643 -206 121 C-202.31326513 110.52855152 -191.36312443 105.60970649 -182.25 100.5625 C-181.01277847 99.86770949 -179.77613614 99.1718867 -178.54003906 98.47509766 C-175.97555634 97.03061452 -173.40866771 95.5905564 -170.83984375 94.15380859 C-165.37528525 91.09370412 -159.93770569 87.98651371 -154.50134277 84.87667847 C-152.74260367 83.87076968 -150.9831579 82.86610545 -149.22363281 81.86157227 C-140.81115729 77.05531261 -132.43792481 72.18408394 -124.07714844 67.28857422 C-116.41369063 62.80787238 -108.71282561 58.39487767 -101 54 C-91.27875494 48.46014067 -81.59105132 42.86625068 -71.93310547 37.21655273 C-61.44145273 31.08122045 -50.91067606 25.01436586 -40.37890625 18.94824219 C-36.82368714 16.89833984 -33.27095346 14.84418356 -29.71875 12.7890625 C-27.93167037 11.75576254 -26.14452866 10.72257004 -24.35736084 9.68942261 C-22.66244233 8.70915502 -20.96817655 7.72775912 -19.27392578 6.74633789 C-18.2476709 6.15328857 -17.22141602 5.56023926 -16.1640625 4.94921875 C-15.26123535 4.42674561 -14.3584082 3.90427246 -13.42822266 3.3659668 C-12.62690918 2.91519775 -11.8255957 2.46442871 -11 2 C-10.31083496 1.61175049 -9.62166992 1.22350098 -8.91162109 0.82348633 C-5.97219277 -0.44275783 -3.1519804 -0.12123002 0 0 Z " fill="#FF4001" transform="translate(387,525)"/>
<path d="M0 0 C1.16660156 0.43924805 2.33320312 0.87849609 3.53515625 1.33105469 C26.9836018 10.39191356 26.9836018 10.39191356 32.375 19.3125 C34.98146979 25.26758954 35.80892277 30.00449826 35.75595093 36.46559143 C35.7606309 37.35361873 35.76531087 38.24164603 35.77013266 39.15658325 C35.7820414 42.11439048 35.77264158 45.07173084 35.76318359 48.02954102 C35.76725109 50.15726999 35.77259397 52.28499685 35.77911377 54.41271973 C35.79277105 60.17911387 35.78749542 65.94534669 35.77797651 71.71174359 C35.77037274 77.75029254 35.77742744 83.78882782 35.78213501 89.82737732 C35.78759004 99.96624223 35.7804071 110.10504154 35.76611328 120.24389648 C35.7497829 131.96258567 35.75507918 143.6811183 35.7715925 155.3998037 C35.78520927 165.46624674 35.7871262 175.53264267 35.77927649 185.59909195 C35.77460162 191.60921955 35.77397018 197.61927357 35.78388596 203.62939644 C35.79255622 209.27899882 35.78653241 214.92839944 35.76920319 220.57798004 C35.76523889 222.65040438 35.76637141 224.72284573 35.77299118 226.79526329 C35.78119873 229.6258683 35.77089447 232.45582821 35.75595093 235.28639221 C35.76264309 236.10488114 35.76933526 236.92337008 35.77623022 237.7666617 C35.72267715 243.00269692 34.73151625 246.62582782 32.375 251.3125 C24.30661329 252.30046572 19.2447966 248.97902506 12.4375 244.9375 C11.32431396 244.29482178 10.21112793 243.65214355 9.06420898 242.98999023 C5.82426489 241.11433176 2.59814249 239.21684698 -0.625 237.3125 C-2.12454735 236.43542355 -3.62448356 235.55901122 -5.125 234.68359375 C-7.78661699 233.12610551 -10.44166225 231.55802697 -13.09375 229.984375 C-18.72367921 226.65248053 -24.3942187 223.39107128 -30.0625 220.125 C-31.16827393 219.48771973 -32.27404785 218.85043945 -33.41333008 218.19384766 C-36.8169253 216.2328862 -40.22091889 214.27261785 -43.625 212.3125 C-57.3007895 204.43630667 -70.96461286 196.54129716 -84.59082031 188.57958984 C-96.24159185 181.77662377 -107.93403744 175.04607814 -119.625 168.3125 C-133.30054314 160.43587411 -146.96460958 152.54129908 -160.59082031 144.57958984 C-172.24159185 137.77662377 -183.93403744 131.04607814 -195.625 124.3125 C-209.30054314 116.43587411 -222.96460958 108.54129908 -236.59082031 100.57958984 C-248.24159185 93.77662377 -259.93403744 87.04607814 -271.625 80.3125 C-285.29030325 72.44177193 -298.9448462 64.55428678 -312.56005859 56.59716797 C-321.2039613 51.54906024 -329.87192913 46.54333206 -338.546875 41.54882812 C-340.56251421 40.3880359 -342.57750626 39.2261191 -344.59179688 38.06298828 C-346.72134993 36.83400443 -348.853053 35.60874214 -350.98632812 34.38623047 C-352.06849609 33.76248535 -353.15066406 33.13874023 -354.265625 32.49609375 C-355.24563477 31.9333374 -356.22564453 31.37058105 -357.23535156 30.79077148 C-359.625 29.3125 -359.625 29.3125 -361.625 27.3125 C-362.0625 23.9375 -362.0625 23.9375 -361.625 20.3125 C-358.27386822 17.11691563 -354.74471299 15.26376778 -350.5234375 13.4296875 C-349.32517334 12.90729492 -348.12690918 12.38490234 -346.89233398 11.84667969 C-345.59528814 11.29268513 -344.29783237 10.73964948 -343 10.1875 C-342.33606232 9.9028186 -341.67212463 9.61813721 -340.98806763 9.3248291 C-297.84200406 -9.15096139 -253.29561369 -22.30383971 -206.625 -27.6875 C-205.70154785 -27.80319336 -204.7780957 -27.91888672 -203.82666016 -28.03808594 C-135.33909368 -36.44162131 -64.10019318 -24.19844972 0 0 Z " fill="#FF4001" transform="translate(775.625,206.6875)"/>
<path d="M0 0 C6.43310297 -0.59723768 10.32254313 1.26171325 15.875 4.375 C16.71087646 4.82979736 17.54675293 5.28459473 18.40795898 5.75317383 C25.10578596 9.42560332 31.69826063 13.27474558 38.2578125 17.1875 C43.95109562 20.57840665 49.69502493 23.88081513 55.4375 27.1875 C56.54424072 27.82518311 57.65098145 28.46286621 58.79125977 29.11987305 C61.06237481 30.42827722 63.33361612 31.73646226 65.60498047 33.04443359 C71.0716998 36.19332054 76.53574887 39.34683264 82 42.5 C84.16665311 43.7500235 86.33331979 45.00002347 88.5 46.25 C118.83333333 63.75 149.16666667 81.25 179.5 98.75 C180.57266113 99.36883057 181.64532227 99.98766113 182.75048828 100.62524414 C184.91557071 101.87435518 187.08060982 103.12354129 189.24560547 104.37280273 C194.68615706 107.51202309 200.12747216 110.64990563 205.5703125 113.78515625 C217.0544882 120.40222892 228.52196894 127.04633977 239.96582031 133.73291016 C250.52620282 139.89919054 261.12126766 146.0049595 271.71777344 152.10888672 C277.14659942 155.23680148 282.57319281 158.36858448 288 161.5 C290.16665583 162.75001879 292.3333225 164.00001878 294.5 165.25 C298.83333333 167.75 303.16666667 170.25 307.5 172.75 C308.57266113 173.36883057 309.64532227 173.98766113 310.75048828 174.62524414 C312.91557071 175.87435518 315.08060982 177.12354129 317.24560547 178.37280273 C322.68615706 181.51202309 328.12747216 184.64990563 333.5703125 187.78515625 C345.2734086 194.52857594 356.95998331 201.29828966 368.61401367 208.1262207 C375.17165519 211.96002932 381.76569938 215.72043521 388.44580078 219.33740234 C392.89213707 221.78427415 392.89213707 221.78427415 394 224 C394.58135165 230.2785978 394.58135165 230.2785978 392.34912109 233.04858398 C389.70899831 235.24173524 387.24942896 236.48099194 384.1015625 237.84765625 C382.3227771 238.62351074 382.3227771 238.62351074 380.50805664 239.41503906 C379.2141787 239.96530923 377.91981219 240.51443177 376.625 241.0625 C375.96273407 241.34557007 375.30046814 241.62864014 374.61813354 241.92028809 C331.28835699 260.4153603 286.72098566 272.9175827 240 279 C238.4838208 279.20133545 238.4838208 279.20133545 236.93701172 279.40673828 C164.70347665 288.51438918 67.30262024 278.31834013 5 238 C-0.59721715 232.88649297 -2.73712083 226.88050339 -3.24888897 219.32601357 C-3.25846394 217.99037667 -3.25732886 216.65463335 -3.24723816 215.31900024 C-3.24965257 214.5767622 -3.25206699 213.83452416 -3.25455457 213.06979406 C-3.26016151 210.59803316 -3.25155034 208.1265342 -3.24291992 205.65478516 C-3.24399379 203.87480601 -3.24593404 202.09482721 -3.24867249 200.31484985 C-3.25351632 195.48258964 -3.24586344 190.65042197 -3.23571944 185.81817293 C-3.22689498 180.72736509 -3.22869748 175.63655979 -3.2290802 170.54574585 C-3.2281432 161.96944653 -3.21946729 153.39318254 -3.20581055 144.81689453 C-3.19021502 134.98864771 -3.184808 125.16043989 -3.1855461 115.33218157 C-3.18623041 104.78707977 -3.17922631 94.24199247 -3.1700995 83.69689512 C-3.1679976 80.70512172 -3.16726232 77.71335076 -3.16686058 74.72157669 C-3.16200841 56.54505806 -3.14058912 38.36802178 -2.67031157 20.19648623 C-2.63358551 18.76488389 -2.59967111 17.33320619 -2.56879842 15.90146565 C-2.52517181 13.9588324 -2.46705102 12.01654066 -2.40815735 10.0743103 C-2.37780553 8.99064871 -2.34745371 7.90698711 -2.31618214 6.79048729 C-2.00558168 4.04926154 -1.41015642 2.34476955 0 0 Z " fill="#235156" transform="translate(423,770)"/>
<path d="M0 0 C5.30021499 7.95032249 1.46575992 21.43102191 0.3125 30.5625 C0.22319214 31.28098114 0.13388428 31.99946228 0.04187012 32.73971558 C-9.15608939 106.23530017 -34.44964728 180.13797549 -80.5625 238.87890625 C-82.94364738 241.92784337 -85.25874605 245.01733191 -87.5625 248.125 C-94.11029676 256.86688305 -101.03391834 265.17644696 -108.4453125 273.19921875 C-110.41541001 275.3590963 -112.33199296 277.5428269 -114.23828125 279.7578125 C-118.31694846 284.43307568 -122.66588914 288.81289053 -127.0625 293.1875 C-127.83916016 293.96802734 -128.61582031 294.74855469 -129.41601562 295.55273438 C-133.46306659 299.59293174 -137.55601252 303.40312662 -142 307 C-142.7425 307.7425 -143.485 308.485 -144.25 309.25 C-152.03506842 317.03506842 -160.48855174 323.89043357 -169.19335938 330.60058594 C-171.00796188 332.00616723 -172.80971649 333.42691444 -174.609375 334.8515625 C-175.76024932 335.75542145 -176.91128466 336.65907543 -178.0625 337.5625 C-179.08472656 338.36816406 -180.10695313 339.17382812 -181.16015625 340.00390625 C-186.90209505 344.03984948 -192.10353861 345.15406372 -199 344 C-209.58570025 340.07014527 -219.31020173 333.35783786 -228.9609375 327.58984375 C-235.2289352 323.84979465 -241.54731365 320.2004013 -247.875 316.5625 C-256.26557438 311.73463926 -264.64268629 306.8852197 -273 302 C-284.54715454 295.25274962 -296.12902212 288.56660576 -307.71777344 281.89111328 C-313.14659942 278.76319852 -318.57319281 275.63141552 -324 272.5 C-326.16665583 271.24998121 -328.3333225 269.99998122 -330.5 268.75 C-334.83333333 266.25 -339.16666667 263.75 -343.5 261.25 C-344.57411133 260.63044434 -345.64822266 260.01088867 -346.75488281 259.37255859 C-348.90570781 258.13144907 -351.05610382 256.8895958 -353.20605469 255.64697266 C-358.25870706 252.72784993 -363.31523286 249.81622107 -368.38757324 246.93145752 C-370.18522259 245.90862368 -371.98148206 244.88339067 -373.77734375 243.85742188 C-376.03242448 242.57007264 -378.29009865 241.28725195 -380.55078125 240.00976562 C-394.28172188 232.15483435 -394.28172188 232.15483435 -395.8125 227.5625 C-393.46677404 220.16444122 -383.18549111 216.0191569 -376.87957764 212.51095581 C-374.37877074 211.11959794 -371.887708 209.71117755 -369.39581299 208.30393982 C-368.11729459 207.58216829 -366.8382807 206.86127377 -365.55877686 206.14125061 C-359.62791584 202.80170191 -353.74654809 199.38018979 -347.875 195.9375 C-336.37202661 189.20664023 -324.8307561 182.54343673 -313.28222656 175.89111328 C-307.85340058 172.76319852 -302.42680719 169.63141552 -297 166.5 C-294.83334417 165.24998121 -292.6666775 163.99998122 -290.5 162.75 C-288.89125 161.821875 -288.89125 161.821875 -287.25 160.875 C-277.5 155.25 -277.5 155.25 -274.24951172 153.37475586 C-272.08442929 152.12564482 -269.91939018 150.87645871 -267.75439453 149.62719727 C-262.31384294 146.48797691 -256.87252784 143.35009437 -251.4296875 140.21484375 C-240.93767906 134.16944841 -230.45518324 128.10889781 -220 122 C-208.45270484 115.25298806 -196.87097973 108.56660682 -185.28222656 101.89111328 C-179.85340058 98.76319852 -174.42680719 95.63141552 -169 92.5 C-166.83334417 91.24998121 -164.6666775 89.99998122 -162.5 88.75 C-161.4275 88.13125 -160.355 87.5125 -159.25 86.875 C-71.5 36.25 -71.5 36.25 -68.24731445 34.37353516 C-66.08950197 33.12858718 -63.93178647 31.8834711 -61.77416992 30.63818359 C-56.22283408 27.43447349 -50.66963459 24.2340637 -45.11328125 21.0390625 C-34.60629645 14.99369163 -24.11120508 8.94243929 -13.7578125 2.63671875 C-8.51619472 -0.47409973 -6.1960569 -1.49164333 0 0 Z " fill="#FE3F01" transform="translate(1050,631)"/>
<path d="M0 0 C4.18421021 1.96340769 8.20313901 4.20103709 12.19921875 6.51953125 C13.08552979 7.03265869 13.08552979 7.03265869 13.98974609 7.55615234 C16.99142173 9.31117461 19.96480777 11.10941424 22.9296875 12.92578125 C28.08007807 16.07317342 33.29598582 19.1070646 38.51171875 22.14453125 C39.53072266 22.73830566 40.54972656 23.33208008 41.59960938 23.94384766 C50.21578694 28.95837753 58.85116553 33.93941128 67.48999023 38.91479492 C74.70001561 43.06969751 81.89178616 47.25464569 89.07421875 51.45703125 C98.89054281 57.19716777 108.7538747 62.85276519 118.63183594 68.48583984 C127.60877648 73.60572043 136.56916997 78.75361398 145.51513672 83.92749023 C150.49496162 86.80743945 155.4773254 89.68237282 160.47457886 92.53196716 C162.24285999 93.54057434 164.01001102 94.5511344 165.77685547 95.56225586 C167.98202642 96.82340977 170.18923368 98.08101309 172.39892578 99.33422852 C177.32150635 102.15484276 182.19249492 105.0513246 186.94921875 108.14453125 C187.7690625 108.67304688 188.58890625 109.2015625 189.43359375 109.74609375 C191.19921875 111.51953125 191.19921875 111.51953125 191.69555664 114.02148438 C190.88279 118.11210331 188.25661555 119.3225196 185.00341797 121.671875 C179.89618138 125.03697743 174.60106004 128.04263152 169.26171875 131.01953125 C168.02393841 131.71709285 166.78664263 132.4155149 165.54980469 133.11474609 C163.01062532 134.54993443 160.46991966 135.98236168 157.92822266 137.41308594 C152.24570608 140.61713819 146.59722976 143.8801513 140.94921875 147.14453125 C139.34639038 148.06975586 139.34639038 148.06975586 137.71118164 149.01367188 C129.53754874 153.73574638 121.38327236 158.49059326 113.23291016 163.25268555 C102.67274791 169.41898255 92.07779329 175.52458164 81.48144531 181.62841797 C76.05261933 184.75633273 70.62602594 187.88811573 65.19921875 191.01953125 C63.03256292 192.26955004 60.86589625 193.51955003 58.69921875 194.76953125 C57.62671875 195.38828125 56.55421875 196.00703125 55.44921875 196.64453125 C19.69921875 217.26953125 19.69921875 217.26953125 16.44873047 219.14477539 C14.28364804 220.39388643 12.11860893 221.64307254 9.95361328 222.89233398 C4.51306169 226.03155434 -0.92825341 229.16943688 -6.37109375 232.3046875 C-16.86310219 238.35008284 -27.34559801 244.41063344 -37.80078125 250.51953125 C-49.34807641 257.26654319 -60.92980152 263.95292443 -72.51855469 270.62841797 C-77.94738067 273.75633273 -83.37397406 276.88811573 -88.80078125 280.01953125 C-90.96743708 281.26955004 -93.13410375 282.51955003 -95.30078125 283.76953125 C-96.37328125 284.38828125 -97.44578125 285.00703125 -98.55078125 285.64453125 C-108.30078125 291.26953125 -108.30078125 291.26953125 -111.55126953 293.14477539 C-113.71635196 294.39388643 -115.88139107 295.64307254 -118.04638672 296.89233398 C-123.48693831 300.03155434 -128.92825341 303.16943688 -134.37109375 306.3046875 C-150.59749102 315.653959 -166.80801736 325.03107635 -182.9375 334.546875 C-183.7224585 335.00989014 -184.50741699 335.47290527 -185.31616211 335.94995117 C-186.7539817 336.79900775 -188.19105541 337.64932938 -189.62719727 338.5012207 C-198.87618137 343.96776678 -198.87618137 343.96776678 -204.80078125 342.51953125 C-206.48474623 340.83556627 -205.95301203 338.75755854 -205.97177124 336.50926208 C-205.96948517 335.81268997 -205.9671991 335.11611786 -205.96484375 334.3984375 C-205.96279938 333.67797745 -205.960755 332.9575174 -205.95864868 332.21522522 C-205.87977456 324.8963767 -205.13267741 317.71142556 -204.17578125 310.45703125 C-204.04523346 309.44346558 -204.04523346 309.44346558 -203.91204834 308.40942383 C-197.69093631 260.38886254 -184.69718997 213.26528409 -163.80078125 169.51953125 C-163.34832031 168.57078125 -162.89585937 167.62203125 -162.4296875 166.64453125 C-149.40685322 139.54009567 -133.66940195 113.97427504 -114.80078125 90.51953125 C-114.07890625 89.6171875 -113.35703125 88.71484375 -112.61328125 87.78515625 C-110.36659306 85.00889156 -108.0915467 82.25953919 -105.80078125 79.51953125 C-105.33913574 78.96620117 -104.87749023 78.41287109 -104.40185547 77.84277344 C-98.54427759 70.84305484 -92.57426324 64.12657729 -86.03125 57.75 C-84.00596748 55.72471748 -82.14546833 53.64571592 -80.30078125 51.45703125 C-77.03455103 47.65274455 -73.42881618 44.37962962 -69.66796875 41.0703125 C-66.95758683 38.65903267 -64.307544 36.1969452 -61.6652832 33.71191406 C-55.25554541 27.69209257 -48.70947354 21.96693569 -41.80078125 16.51953125 C-41.10871582 15.96555664 -40.41665039 15.41158203 -39.70361328 14.84082031 C-37.34662102 12.95462739 -34.98099472 11.07974311 -32.61328125 9.20703125 C-31.8646582 8.60769775 -31.11603516 8.00836426 -30.34472656 7.39086914 C-20.98882149 0.05381555 -11.89784049 -5.04856742 0 0 Z " fill="#2D585F" transform="translate(385.80078125,255.48046875)"/>
<path d="M0 0 C8.05355814 5.05561772 14.4392763 11.24099079 17.30859375 20.44921875 C17.85324879 23.2491859 18.26574105 26.06544148 18.68359375 28.88671875 C20.98610731 43.83519538 31.10667276 53.02738519 41.30859375 63.44921875 C42.31116211 64.48248291 42.31116211 64.48248291 43.33398438 65.53662109 C68.9852554 92.48555331 68.9852554 92.48555331 102.99609375 103.69921875 C113.90054348 103.56574935 123.44878941 99.80616772 131.5390625 92.41015625 C138.61092962 84.9004437 142.11949402 77.60071196 143.74609375 67.44921875 C145.36810528 57.46116495 149.24119231 50.2781399 157.19140625 43.91796875 C165.76667862 37.96907131 175.67990014 36.24062002 185.99609375 38.01171875 C195.73889931 40.71110158 203.4420034 46.92813534 208.5546875 55.55078125 C211.45295703 61.7295097 211.90198605 68.00056427 212.53173828 74.69702148 C213.85260657 87.9236285 218.64755211 100.00781595 228.99609375 108.76171875 C238.26531383 115.63615553 248.8520478 120.43654498 260.24609375 122.26171875 C269.6277772 124.05356202 276.93089334 129.69732082 282.30859375 137.44921875 C287.2523814 145.37736602 288.31620275 154.99123848 286.74609375 164.13671875 C284.3073924 172.9386541 278.87883399 180.39342775 271.30859375 185.44921875 C261.3932149 190.70324825 252.07128651 191.3989938 241.30859375 188.44921875 C232.29984534 185.15179595 225.53136912 179.05292587 221.30859375 170.44921875 C219.70913042 166.2513493 218.93945611 162.34140461 218.43359375 157.88671875 C215.56677252 136.93687133 205.88887509 121.30739612 189.30859375 108.44921875 C183.41182337 104.57816243 174.16976152 105.01653249 167.30859375 105.44921875 C162.86761435 106.48561417 159.24611088 108.17757425 155.30859375 110.44921875 C154.34179688 110.98160156 153.375 111.51398438 152.37890625 112.0625 C142.29966128 118.00351838 136.04751163 125.29204945 132.30859375 136.44921875 C131.92595998 138.46129973 131.59241075 140.48333851 131.30859375 142.51171875 C129.88816514 152.49345796 125.33016479 160.28930925 117.30859375 166.44921875 C108.18804114 172.08992975 98.73336095 173.5847832 88.24609375 171.51171875 C78.40539834 168.648502 71.35621632 162.85886198 66.4296875 153.94140625 C64.29620371 149.19867922 63.14233523 144.94280059 62.73046875 139.74169922 C61.97902541 130.81190515 60.47971592 124.00994733 53.47607422 117.83300781 C47.21292812 112.63281288 40.65040025 107.81794103 34.015625 103.10546875 C25.1747196 96.65873192 17.69932116 89.0132597 10.17285156 81.11523438 C2.8483906 73.55737669 -2.86360713 69.89934839 -13.06640625 67.38671875 C-14.37908113 67.05016051 -15.69158117 66.71291964 -17.00390625 66.375 C-19.19024884 65.82609831 -21.37743435 65.28050804 -23.56640625 64.7421875 C-32.24314612 62.42387106 -39.2922572 58.22063434 -44.40625 50.69921875 C-49.73227085 41.37463513 -51.23657093 32.09317911 -49.1015625 21.53125 C-46.5517173 13.20018895 -41.38593386 6.40025851 -33.98828125 1.75 C-23.72690801 -3.48570067 -10.72526388 -5.15463778 0 0 Z " fill="#FD3F01" transform="translate(502.69140625,529.55078125)"/>
<path d="M0 0 C9.86197613 8.45773403 12.05976287 17.88690719 13.22338867 30.24804688 C14.54298798 43.4743756 19.33955376 55.55910085 29.6875 64.3125 C38.95672008 71.18693678 49.54345405 75.98732623 60.9375 77.8125 C70.31918345 79.60434327 77.62229959 85.24810207 83 93 C87.94378765 100.92814727 89.007609 110.54201973 87.4375 119.6875 C84.99879865 128.48943535 79.57024024 135.944209 72 141 C62.08462115 146.2540295 52.76269276 146.94977505 42 144 C32.99125159 140.7025772 26.22277537 134.60370712 22 126 C20.40053667 121.80213055 19.63086236 117.89218586 19.125 113.4375 C16.25817877 92.48765258 6.58028134 76.85817737 -10 64 C-13.10968283 61.95508385 -15.75138166 61.81609688 -19.43188477 61.77490234 C-29.82132773 61.64980222 -38.08840721 58.85797674 -45.9375 51.75 C-52.83501416 44.12908802 -56.3437026 34.42888476 -56 24.25 C-54.87325863 14.10932768 -50.26488354 6.01636614 -42.3671875 -0.37890625 C-29.13432072 -9.44101799 -13.20663035 -8.99335629 0 0 Z " fill="#FE3F01" transform="translate(702,574)"/>
<path d="M0 0 C7.22124213 0.41830366 14.04567778 0.95461111 21 3 C19.56424687 6.72052515 17.93012331 10.28842672 16.171875 13.8671875 C15.62217041 14.99261963 15.07246582 16.11805176 14.50610352 17.27758789 C14.07528976 18.15908005 14.07528976 18.15908005 13.63577271 19.05838013 C8.68044744 29.22119311 3.82563917 39.34541614 0 50 C-0.35602295 50.97598145 -0.35602295 50.97598145 -0.71923828 51.97167969 C-18.33954887 100.68732776 -24.69196526 156.83369711 -2.5625 205.125 C-2.19616455 205.88973633 -1.8298291 206.65447266 -1.45239258 207.44238281 C-0.58344891 209.27134032 0.21546603 211.1332769 1 213 C0.67 213.66 0.34 214.32 0 215 C-0.44802979 214.63237549 -0.89605957 214.26475098 -1.35766602 213.88598633 C-3.42409946 212.19255915 -5.49327708 210.50251731 -7.5625 208.8125 C-8.26697266 208.23435547 -8.97144531 207.65621094 -9.69726562 207.06054688 C-10.39658203 206.49013672 -11.09589844 205.91972656 -11.81640625 205.33203125 C-12.867677 204.47266968 -12.867677 204.47266968 -13.94018555 203.59594727 C-15.81802995 202.14099066 -17.73196134 200.90056882 -19.7421875 199.640625 C-23.98260171 196.64600271 -25.61366545 192.6267417 -27.5625 187.9375 C-27.94035645 187.05698975 -28.31821289 186.17647949 -28.70751953 185.26928711 C-47.3585166 140.65683198 -43.88308997 92.48847867 -26.07421875 48.16015625 C-22.22838248 38.81314764 -17.9811098 29.714307 -13.3125 20.75 C-12.87341309 19.90550293 -12.43432617 19.06100586 -11.98193359 18.19091797 C-5.97367996 6.89090899 -5.97367996 6.89090899 -2 2 C-1.34 2 -0.68 2 0 2 C0 1.34 0 0.68 0 0 Z " fill="#231E1E" transform="translate(1022,871)"/>
<path d="M0 0 C6.26473051 2.40046219 10.81140925 5.69654018 15 11 C16.76392863 15.68921971 17.21962099 20.27628783 17.625 25.25 C17.76629614 26.64565483 17.90907292 28.04116045 18.05322266 29.43652344 C22.81480723 79.1443578 18.23930338 134.0488821 -14.59375 174.20703125 C-15.3878125 175.12871094 -16.181875 176.05039063 -17 177 C-17.7734375 177.91136719 -18.546875 178.82273437 -19.34375 179.76171875 C-23.87053822 184.94737169 -28.64258527 189.67506349 -34 194 C-34.94939453 194.86818359 -34.94939453 194.86818359 -35.91796875 195.75390625 C-38 197 -38 197 -40.35546875 196.8984375 C-43.58641203 195.80077583 -46.35897667 194.33436515 -49.3125 192.625 C-50.38113281 192.01914063 -51.44976563 191.41328125 -52.55078125 190.7890625 C-53.35902344 190.19867187 -54.16726563 189.60828125 -55 189 C-55 186 -55 186 -53.63671875 184.59765625 C-52.99347656 184.09105469 -52.35023437 183.58445312 -51.6875 183.0625 C-18.41734714 154.95596875 -3.22901538 108.57600605 0.52563477 66.43652344 C1.014384 60.44606414 1.14528098 54.5040104 1.1328125 48.49609375 C1.13376923 47.45155533 1.13472595 46.40701691 1.13571167 45.33082581 C1.13638657 43.14185526 1.13458096 40.95288262 1.13037109 38.76391602 C1.12500755 35.44217374 1.13034258 32.12056631 1.13671875 28.79882812 C1.13605795 26.65624971 1.13477675 24.51367137 1.1328125 22.37109375 C1.13483673 21.39369736 1.13686096 20.41630096 1.13894653 19.4092865 C1.11712329 12.89135365 0.69144868 6.4806434 0 0 Z " fill="#231E1E" transform="translate(1216,1007)"/>
<path d="M0 0 C7.77712329 6.83056552 11.81353489 14.24314611 12.875 24.5 C13.37041403 35.43721751 10.54227796 43.76791062 3.1796875 52.046875 C-3.69625982 58.56093036 -12.49424576 62.1421126 -22 62 C-32.30114791 61.04072405 -40.84741056 57.60616828 -48 50 C-55.05824067 40.66370282 -55.85708743 31.33136366 -55 20 C-53.1902392 10.93904995 -47.035574 3.55836348 -39.58984375 -1.703125 C-27.28151302 -8.85387474 -11.51130395 -8.32513946 0 0 Z " fill="#FE3F01" transform="translate(777,658)"/>
<path d="M0 0 C8.86068642 5.56229215 14.82807674 12.3675343 17.9140625 22.421875 C19.84280826 32.33295471 17.82627342 41.79778516 12.49609375 50.26171875 C7.33116734 57.46977329 0.66951639 61.66224454 -7.69140625 64.44921875 C-19.252221 66.20036601 -28.07000783 65.06600544 -37.65625 58.16796875 C-44.93658917 52.01950572 -48.95026781 43.65814381 -50.07421875 34.2421875 C-50.43979356 23.96953534 -48.18475407 16.00452225 -41.56640625 8.07421875 C-31.19091047 -2.73072636 -13.80093621 -6.63282769 0 0 Z " fill="#FE3F01" transform="translate(502.69140625,529.55078125)"/>
<path d="M0 0 C1.12788241 1.69182361 2.22967783 3.40411669 3.234375 5.171875 C8.58820998 14.27891388 15.64786811 21.48938558 23 29 C24.00256836 30.03326416 24.00256836 30.03326416 25.02539062 31.08740234 C48.54728471 55.69408087 48.54728471 55.69408087 79 69 C79 69.33 79 69.66 79 70 C78.16597656 70.15855469 77.33195313 70.31710937 76.47265625 70.48046875 C66.92291226 72.46042713 58.59333209 74.95452009 52.34375 82.8359375 C50.1098534 86.43355005 48.59655327 90.28761666 47.078125 94.23046875 C46.16606895 96.57339534 45.16743885 98.77655965 44 101 C43.79375 99.865625 43.5875 98.73125 43.375 97.5625 C40.87259953 87.81478966 34.27242816 82.08696844 26.3125 76.5 C13.62175415 67.38618251 2.42272778 57.68758578 -8.36914062 46.37695312 C-15.45242843 39.11566695 -21.30334828 35.57819008 -31 32.75 C-32.134375 32.41484375 -33.26875 32.0796875 -34.4375 31.734375 C-35.283125 31.49203125 -36.12875 31.2496875 -37 31 C-37 30.67 -37 30.34 -37 30 C-36.31035156 29.97421875 -35.62070312 29.9484375 -34.91015625 29.921875 C-25.38413821 29.34691644 -16.05269944 26.54806212 -9.40625 19.25 C-5.84223024 14.77750461 -3.74168271 10.40959729 -2 5 C-1.33933281 3.33094605 -0.67561748 1.6630584 0 0 Z " fill="#201E1E" transform="translate(521,564)"/>
<path d="M0 0 C0.33 0 0.66 0 1 0 C1.21914063 1.03898438 1.43828125 2.07796875 1.6640625 3.1484375 C4.52632395 16.00161156 9.26597727 27.87416292 20.70849609 35.47485352 C21.27906738 35.83377686 21.84963867 36.1927002 22.4375 36.5625 C23.03643066 36.945271 23.63536133 37.32804199 24.25244141 37.72241211 C30.4828563 41.54934273 37.01851603 43.88857856 44 46 C44 46.33 44 46.66 44 47 C43.10539063 47.07476563 42.21078125 47.14953125 41.2890625 47.2265625 C29.89677279 48.46538292 21.79320838 51.77168685 14.46875 60.7890625 C10.81987862 66.28177847 8.68985688 72.44635965 8 79 C6.21218712 75.74586691 5.23938792 72.50884325 4.25 68.9375 C-0.68886777 52.84577082 -12.02434824 38.16853732 -27 30 C-24.12058058 28.08038705 -21.32640688 26.75363335 -18.1875 25.3125 C-7.89949582 20.17470298 -4.43947426 12.95250164 -0.75 2.4375 C-0.5025 1.633125 -0.255 0.82875 0 0 Z " fill="#211E1E" transform="translate(714,605)"/>
<path d="M0 0 C1.60467976 2.99307659 2.62466309 5.94809123 3.625 9.1875 C6.65567753 17.5330054 11.5789752 23.05710927 19.5 27.0625 C20.99079131 27.72931479 22.48777503 28.38333449 24 29 C24 29.66 24 30.32 24 31 C23.26136719 31.27972656 22.52273438 31.55945313 21.76171875 31.84765625 C8.23519777 37.19295234 -2.69757254 43.44249744 -8.9375 57 C-9.63924422 58.66071944 -10.33201375 60.32541695 -11 62 C-13.55417481 59.44582519 -13.70894735 57.49667947 -14.5625 54 C-17.15077778 45.41981176 -21.535044 39.67468553 -29.25390625 35.05078125 C-32.1354093 33.59131867 -35.01875465 32.24092446 -38 31 C-35.16224268 29.47098007 -32.49293869 28.54217986 -29.375 27.75 C-16.82342757 24.02144466 -8.73285527 16.26731636 -2.5 4.9375 C-1.65436323 3.29795425 -0.816341 1.65432741 0 0 Z " fill="#211E1E" transform="translate(646,604)"/>
<path d="M0 0 C0.495 0.99 0.495 0.99 1 2 C0.10717773 4.28393555 0.10717773 4.28393555 -1.31640625 7.13671875 C-1.83058105 8.18142334 -2.34475586 9.22612793 -2.87451172 10.30249023 C-3.43154785 11.41954346 -3.98858398 12.53659668 -4.5625 13.6875 C-9.11799195 23.00734865 -13.46735726 32.23706006 -17 42 C-17.23879883 42.65355469 -17.47759766 43.30710937 -17.72363281 43.98046875 C-33.66746812 88.06899907 -43.04421964 144.97625452 -22.88232422 189.46630859 C-22.15992589 191.00516914 -21.42383893 192.53773342 -20.66967773 194.0612793 C-20 196 -20 196 -21 199 C-43.17691609 158.77973503 -42.42601462 109.78361604 -30.04931641 66.58764648 C-23.06785059 43.52650889 -13.86973198 19.87011248 0 0 Z " fill="#F23E02" transform="translate(1039,879)"/>
<path d="M0 0 C2.00718159 3.72725934 2.60252552 7.20741269 3.0625 11.375 C3.14483887 12.08833496 3.22717773 12.80166992 3.31201172 13.53662109 C3.55361269 15.68997949 3.78006476 17.84432989 4 20 C4.11472656 21.11890625 4.22945312 22.2378125 4.34765625 23.390625 C5.85578607 40.9783925 5.29224499 58.5168346 3 76 C2.89284668 76.82161621 2.78569336 77.64323242 2.67529297 78.48974609 C1.26804039 88.93864767 -0.70828418 98.95747715 -4 109 C-4.20995605 109.65677734 -4.41991211 110.31355469 -4.63623047 110.99023438 C-8.13631101 121.85903931 -12.57914453 131.95737932 -18 142 C-18.5775 143.0828125 -19.155 144.165625 -19.75 145.28125 C-23.77909374 152.51869616 -28.57432303 158.75765539 -34 165 C-34.68320313 165.80566406 -35.36640625 166.61132812 -36.0703125 167.44140625 C-41.2514248 173.44540109 -46.6827102 179.64894029 -54 183 C-51.23893385 179.71656998 -48.47038108 176.49172858 -45.50390625 173.390625 C-12.90054369 139.16865579 0.29942037 89.67811791 0.09765625 43.359375 C0.0962413 42.11117981 0.09482635 40.86298462 0.09336853 39.57696533 C0.08782172 35.63461799 0.07527942 31.69232984 0.0625 27.75 C0.05690659 25.0585952 0.05284758 22.36718881 0.04882812 19.67578125 C0.03786977 13.11716769 0.02118556 6.55858808 0 0 Z " fill="#EE3D03" transform="translate(1217,1010)"/>
<path d="M0 0 C0.495 0.99 0.495 0.99 1 2 C0.15478516 4.14111328 0.15478516 4.14111328 -1.2109375 6.8203125 C-1.70964355 7.81844971 -2.20834961 8.81658691 -2.72216797 9.8449707 C-3.54031982 11.46858521 -3.54031982 11.46858521 -4.375 13.125 C-16.54673759 37.89514653 -25.31200496 63.79790881 -30 91 C-30.3403125 92.86011719 -30.3403125 92.86011719 -30.6875 94.7578125 C-35.51549202 125.80448341 -31.86843937 157.32049764 -18.78515625 185.84765625 C-18.39650391 186.91306641 -18.39650391 186.91306641 -18 188 C-18.33 188.66 -18.66 189.32 -19 190 C-41.4030411 148.26438536 -40.90640053 103.55967324 -27.8125 58.87109375 C-21.38687357 38.54558792 -12.21995564 17.51811823 0 0 Z " fill="#F23E02" transform="translate(1018,876)"/>
<path d="M0 0 C14.34944276 25.78681449 6.07327003 79.08873122 -1.2109375 106.26074219 C-7.21341102 127.09853703 -16.79701416 147.51439144 -31 164 C-31.7734375 164.91136719 -32.546875 165.82273437 -33.34375 166.76171875 C-44.52120288 179.56602693 -44.52120288 179.56602693 -52 183 C-49.06077253 179.48726473 -46.16619538 176.11877469 -42.8125 173 C-17.27346676 147.62972689 -6.2165785 110.56844335 -1 76 C-0.87995605 75.25234375 -0.75991211 74.5046875 -0.63623047 73.734375 C3.15592693 49.68158528 1.18238614 24.2011801 0 0 Z " fill="#EE3D03" transform="translate(1230,1020)"/>
<path d="M0 0 C0.33 0.99 0.66 1.98 1 3 C0.07885742 4.57470703 0.07885742 4.57470703 -1.39453125 6.2578125 C-1.93352051 6.87970459 -2.47250977 7.50159668 -3.02783203 8.14233398 C-3.91124268 9.12375366 -3.91124268 9.12375366 -4.8125 10.125 C-5.40401855 10.79281494 -5.99553711 11.46062988 -6.60498047 12.14868164 C-16.28177478 22.92659246 -16.28177478 22.92659246 -22 27 C-22.99 27 -23.98 27 -25 27 C-24.16597656 26.20078125 -23.33195312 25.4015625 -22.47265625 24.578125 C-15.91215472 18.20425674 -10.07229168 11.86713249 -4.8046875 4.36328125 C-3 2 -3 2 0 0 Z " fill="#E83C04" transform="translate(1203,1175)"/>
<path d="M0 0 C0.33 0.66 0.66 1.32 1 2 C0.04370117 4.47436523 0.04370117 4.47436523 -1.45703125 7.55859375 C-1.99263672 8.66654297 -2.52824219 9.77449219 -3.08007812 10.91601562 C-3.93762695 12.65915039 -3.93762695 12.65915039 -4.8125 14.4375 C-5.37259766 15.59572266 -5.93269531 16.75394531 -6.50976562 17.94726562 C-10.67657425 26.51486137 -10.67657425 26.51486137 -13 30 C-13.66 29.67 -14.32 29.34 -15 29 C-13.46846736 23.79608265 -11.18072354 19.25230945 -8.625 14.5 C-8.23828125 13.76652344 -7.8515625 13.03304687 -7.453125 12.27734375 C-5.17980588 8.01296325 -2.75273562 3.97198381 0 0 Z " fill="#E23B04" transform="translate(1039,879)"/>
<path d="M0 0 C0.99 0.33 1.98 0.66 3 1 C3.93455671 3.45095034 4.68541417 5.79243988 5.375 8.3125 C7.21955854 14.6847414 9.42668111 20.69216748 12.1796875 26.7421875 C12.45039062 27.48726562 12.72109375 28.23234375 13 29 C12.67 29.66 12.34 30.32 12 31 C0 7.78640777 0 7.78640777 0 0 Z " fill="#D73A06" transform="translate(987,1035)"/>
<path d="M0 0 C2.0310023 4.0620046 2.63022148 7.45443782 3.125 11.875 C3.21136719 12.56980469 3.29773437 13.26460937 3.38671875 13.98046875 C3.86459595 18.00829088 4.08896677 21.94565712 4 26 C3.34 26 2.68 26 2 26 C2 31.61 2 37.22 2 43 C1.67 43 1.34 43 1 43 C0.67 28.81 0.34 14.62 0 0 Z " fill="#BF3609" transform="translate(1217,1010)"/>
<path d="M0 0 C0.66 0 1.32 0 2 0 C0.55577318 5.40059467 -3.09683581 8.23501161 -7.125 11.8125 C-8.11306641 12.7087207 -8.11306641 12.7087207 -9.12109375 13.62304688 C-10.74055132 15.08994685 -12.36679842 16.548442 -14 18 C-14.66 17.67 -15.32 17.34 -16 17 C-15.18015625 16.19175781 -14.3603125 15.38351562 -13.515625 14.55078125 C-12.42694863 13.47149002 -11.3384145 12.39205531 -10.25 11.3125 C-9.71117187 10.78205078 -9.17234375 10.25160156 -8.6171875 9.70507812 C-6.1482201 7.25116541 -3.88563143 4.85388429 -1.734375 2.10546875 C-1.16203125 1.41066406 -0.5896875 0.71585938 0 0 Z " fill="#D73906" transform="translate(1179,1175)"/>
<path d="M0 0 C2.15447903 3.23171854 3.26720394 6.21723858 4.5625 9.875 C4.99691406 11.08929687 5.43132813 12.30359375 5.87890625 13.5546875 C6.79922678 16.38298962 7.50488423 19.07381018 8 22 C4.76955075 19.33390634 3.36023668 15.88482447 1.75 12.125 C1.46898437 11.51269531 1.18796875 10.90039062 0.8984375 10.26953125 C-0.7533734 6.45074071 -1.30428706 3.98869181 0 0 Z " fill="#D53906" transform="translate(1011,1056)"/>
<path d="M0 0 C0.33 0.66 0.66 1.32 1 2 C0.37915039 3.69580078 0.37915039 3.69580078 -0.65234375 5.6953125 C-1.01650391 6.41074219 -1.38066406 7.12617187 -1.75585938 7.86328125 C-2.14580078 8.60964844 -2.53574219 9.35601563 -2.9375 10.125 C-3.32357422 10.87910156 -3.70964844 11.63320313 -4.10742188 12.41015625 C-5.06452132 14.27709097 -6.03136106 16.13902628 -7 18 C-7.66 17.67 -8.32 17.34 -9 17 C-7.51481201 12.95698825 -5.57122002 9.38853744 -3.375 5.6875 C-2.74335937 4.61886719 -2.11171875 3.55023437 -1.4609375 2.44921875 C-0.97882813 1.64097656 -0.49671875 0.83273437 0 0 Z " fill="#CF3807" transform="translate(1039,879)"/>
<path d="M0 0 C0.33 0.66 0.66 1.32 1 2 C-0.07518118 4.44332726 -1.19808566 6.76754523 -2.4375 9.125 C-2.77587891 9.78371094 -3.11425781 10.44242188 -3.46289062 11.12109375 C-4.30149926 12.75106547 -5.14984811 14.37601909 -6 16 C-6.66 15.67 -7.32 15.34 -8 15 C-6.62712658 11.30123909 -4.93644547 8.0485524 -2.875 4.6875 C-2.33617187 3.80449219 -1.79734375 2.92148437 -1.2421875 2.01171875 C-0.83226562 1.34785156 -0.42234375 0.68398438 0 0 Z " fill="#D33906" transform="translate(1018,876)"/>
<path d="M0 0 C-1.42353524 3.33136597 -3.1335313 5.27664757 -5.875 7.625 C-6.55304688 8.21539063 -7.23109375 8.80578125 -7.9296875 9.4140625 C-9.88666469 10.91318087 -11.76048537 11.98569068 -14 13 C-3.15384615 0 -3.15384615 0 0 0 Z " fill="#C63708" transform="translate(1192,1190)"/>
</svg>
